<svg width="94" height="47" viewBox="0 0 94 47" fill="none" xmlns="http://www.w3.org/2000/svg">
<path d="M34.4642 40.1391C28.4308 45.6437 18.9948 47.4786 12.4716 45.6437C5.33701 43.6364 -0.761296 37.2034 0.0774077 26.8364C0.573175 20.708 4.05746 16.6943 7.47623 15.3268C10.1467 14.2586 13.683 13.6254 14.5217 11.6988C16.3333 7.53915 20.4859 5.09327 25.4249 4.26758C29.2456 3.62905 32.88 3.90061 34.7438 4.26758C37.0735 4.7263 38.3782 4.90979 40.4284 3.4419C43.7347 1.07492 50.3698 1.33914 53.3817 2.06575C58.3207 3.25841 58.5071 0.506116 66.1486 0.139143C70.8025 -0.08471 73.9672 1.36116 75.6539 1.42355C80.6861 1.60703 82.8983 0.855058 87.5 0.139462C92.7944 -0.683497 94.4838 3.15954 91.5 8.5C89.7096 11.7045 84.9194 16.3953 78.4496 18.4878C74.7332 19.2713 74.7984 26.4327 65.7758 29.13C55.3386 32.2492 52.2988 28.018 48.8154 32.2492C43.224 39.0382 40.4977 34.6346 34.4642 40.1391Z" fill="url(#paint0_linear_3049_1314)"/>
<path d="M9.39746 33.97C9.39746 33.97 13.3114 29.7498 17.4117 29.1993C21.5121 28.6489 23.6517 28.9259 25.9851 28.2819C30.6446 26.9975 37.7531 20.5663 42.9456 16.5388C49.0961 11.7681 62.5153 13.97 69.5977 13.0525C74.8238 12.3755 79.4758 7.73145 79.4758 7.73145" stroke="#F4F8F9" stroke-width="1.5" stroke-miterlimit="10" stroke-linecap="round"/>
<path d="M62.1416 13.2365L65.6828 8.46582" stroke="#F4F8F9" stroke-width="1.5" stroke-miterlimit="10" stroke-linecap="round"/>
<path d="M51.7051 13.6035L57.4828 18.0072" stroke="#F4F8F9" stroke-width="1.5" stroke-miterlimit="10" stroke-linecap="round"/>
<path d="M13.4043 26.3555L17.5978 29.1995" stroke="#F4F8F9" stroke-width="1.5" stroke-miterlimit="10" stroke-linecap="round"/>
<defs>
<linearGradient id="paint0_linear_3049_1314" x1="47" y1="-0.160911" x2="47" y2="46.8391" gradientUnits="userSpaceOnUse">
<stop stop-color="#EEB629"/>
<stop offset="1" stop-color="#FADC8E"/>
</linearGradient>
</defs>
</svg>
