<svg width="72" height="80" viewBox="0 0 72 80" fill="none" xmlns="http://www.w3.org/2000/svg">
<path d="M58.3671 45.9722V13.9424H13.9102V45.9722" stroke="#0D9EBE" stroke-width="3" stroke-linecap="round" stroke-linejoin="round"/>
<path d="M68.7406 35.7803L36.1389 67.8101L3.53711 35.7803" stroke="#0D9EBE" stroke-width="3" stroke-linecap="round" stroke-linejoin="round"/>
<path d="M24.2838 56.1631L9.46484 70.7221" stroke="#0D9EBE" stroke-width="3" stroke-linecap="round" stroke-linejoin="round"/>
<path d="M47.9941 56.1631L62.8131 70.7221" stroke="#0D9EBE" stroke-width="3" stroke-linecap="round" stroke-linejoin="round"/>
<path d="M24.2832 28.501H47.9936" stroke="#0D9EBE" stroke-width="3" stroke-linecap="round" stroke-linejoin="round"/>
<path d="M24.2832 37.2363H47.9936" stroke="#0D9EBE" stroke-width="3" stroke-linecap="round" stroke-linejoin="round"/>
<path d="M23.75 13.9421L36.1387 2.29492L48.5273 13.9421" stroke="#0D9EBE" stroke-width="3" stroke-linecap="round" stroke-linejoin="round"/>
<path d="M58.3668 23.1875L69.3032 33.4662C69.8812 34.0194 70.222 34.7765 70.222 35.5772V75.1049C70.222 76.7064 68.8883 78.0167 67.2582 78.0167H5.01848C3.3884 78.0167 2.05469 76.7064 2.05469 75.1049V35.5772C2.05469 34.7765 2.38071 34.0194 2.97346 33.4662L13.9099 23.1875" stroke="#0D9EBE" stroke-width="3" stroke-linecap="round" stroke-linejoin="round"/>
</svg>
