<svg width="80" height="57" viewBox="0 0 80 57" fill="none" xmlns="http://www.w3.org/2000/svg">
<path d="M76.7656 3.94228C72.6428 3.54604 70.7504 3.01771 64.2621 1.89502C55.7462 0.44212 50.069 1.23461 47.5007 1.82898C48.7848 10.0841 46.8924 17.7448 46.8924 17.7448C47.5007 9.22555 46.1489 3.87624 45.5407 2.15918C36.2813 -0.614534 20.9392 -2.46368 10.1254 8.03682C-0.82365 18.6694 -0.418131 31.8776 0.32532 40.3308C1.06877 48.784 1.67705 54.1994 1.67705 54.1994C3.29912 62.1903 11.4095 50.8973 23.5751 47.3971C35.673 43.897 45.2703 34.4531 45.2703 34.4531C62.64 33.9248 69.669 20.8487 73.6566 16.9523C77.6442 13.122 83.8622 4.53665 76.7656 3.94228Z" fill="url(#paint0_linear_3049_1336)"/>
<defs>
<linearGradient id="paint0_linear_3049_1336" x1="40" y1="0" x2="40" y2="57" gradientUnits="userSpaceOnUse">
<stop stop-color="#EEB629"/>
<stop offset="1" stop-color="#FADC8E"/>
</linearGradient>
</defs>
</svg>
