<svg width="62" height="82" viewBox="0 0 62 82" fill="none" xmlns="http://www.w3.org/2000/svg">
<path d="M16.3745 16.4238C15.9571 16.4238 15.6172 16.0573 15.6172 15.607V8.2183C15.6172 7.76805 15.9571 7.4015 16.3745 7.4015H25.9871C26.1985 7.4015 26.3992 7.30625 26.5437 7.13885C26.6882 6.97145 26.7605 6.74921 26.7444 6.5212C26.7364 6.41441 26.7337 6.30762 26.7337 6.20083C26.7337 3.72157 28.6043 1.7041 30.903 1.7041C33.2018 1.7041 35.0724 3.72157 35.0724 6.20083C35.0724 6.30762 35.0697 6.41441 35.0617 6.5212C35.0456 6.74921 35.1179 6.97145 35.2624 7.13885C35.4069 7.30625 35.6076 7.4015 35.819 7.4015H45.4316C45.849 7.4015 46.1889 7.76805 46.1889 8.2183V15.607C46.1889 16.0573 45.849 16.4238 45.4316 16.4238H16.3745Z" stroke="#0D9EBE" stroke-width="3" stroke-miterlimit="10"/>
<path d="M47.0481 8.9248H58.1498C59.049 8.9248 59.7768 9.68065 59.7768 10.6163V78.6034C59.7768 79.5363 59.049 80.2949 58.1498 80.2949H3.84956C2.95041 80.2949 2.22266 79.5391 2.22266 78.6034V10.6163C2.22266 9.68346 2.95041 8.9248 3.84956 8.9248H14.9541" stroke="#0D9EBE" stroke-width="3" stroke-miterlimit="10"/>
<path d="M45.3875 14.1592H51.2508C51.5812 14.1592 51.8506 14.4658 51.8506 14.843V72.3543C51.8506 72.7314 51.5812 73.0381 51.2508 73.0381H10.5559C10.2255 73.0381 9.95605 72.7314 9.95605 72.3543V14.843C9.95605 14.4658 10.2255 14.1592 10.5559 14.1592H16.3556" stroke="#0D9EBE" stroke-width="3" stroke-miterlimit="10"/>
<path d="M20.0361 29.0518H21.0726" stroke="#0D9EBE" stroke-width="3" stroke-miterlimit="10" stroke-linecap="round"/>
<path d="M27.5908 29.0518H42.1009" stroke="#0D9EBE" stroke-width="3" stroke-miterlimit="10" stroke-linecap="round"/>
<path d="M20.0361 37.2168H21.0726" stroke="#0D9EBE" stroke-width="3" stroke-miterlimit="10" stroke-linecap="round"/>
<path d="M27.5908 37.2168H42.1009" stroke="#0D9EBE" stroke-width="3" stroke-miterlimit="10" stroke-linecap="round"/>
<path d="M20.0361 45.3828H21.0726" stroke="#0D9EBE" stroke-width="3" stroke-miterlimit="10" stroke-linecap="round"/>
<path d="M27.5908 45.3828H42.1009" stroke="#0D9EBE" stroke-width="3" stroke-miterlimit="10" stroke-linecap="round"/>
<path d="M20.0361 53.5498H21.0726" stroke="#0D9EBE" stroke-width="3" stroke-miterlimit="10" stroke-linecap="round"/>
<path d="M27.5908 53.5498H42.1009" stroke="#0D9EBE" stroke-width="3" stroke-miterlimit="10" stroke-linecap="round"/>
<path d="M20.0361 61.7139H21.0726" stroke="#0D9EBE" stroke-width="3" stroke-miterlimit="10" stroke-linecap="round"/>
<path d="M27.5908 61.7139H42.1009" stroke="#0D9EBE" stroke-width="3" stroke-miterlimit="10" stroke-linecap="round"/>
</svg>
