<svg xmlns="http://www.w3.org/2000/svg" width="19" height="16" fill="none" viewBox="0 0 19 16">
  <path fill="#222" d="M8.571 9.57v4.287c0 .595-.208 1.1-.625 1.518A2.067 2.067 0 0 1 6.43 16H2.143a2.066 2.066 0 0 1-1.518-.625A2.067 2.067 0 0 1 0 13.857V6c0-.774.15-1.51.446-2.21a5.818 5.818 0 0 1 1.228-1.83A5.698 5.698 0 0 1 3.494.743c.7-.304 1.457-.46 2.22-.457h.715c.193 0 .36.07.502.212A.686.686 0 0 1 7.143 1v1.429c0 .193-.07.36-.212.502a.686.686 0 0 1-.502.212h-.715c-.788 0-1.462.279-2.02.837A2.753 2.753 0 0 0 2.857 6v.357c0 .298.104.55.313.759.208.208.46.313.76.313h2.5c.594 0 1.1.208 1.516.624.417.417.625.923.625 1.518Zm10 0v4.287c0 .595-.208 1.1-.625 1.518A2.067 2.067 0 0 1 16.43 16h-4.286a2.066 2.066 0 0 1-1.518-.625A2.066 2.066 0 0 1 10 13.857V6c0-.774.15-1.51.446-2.21a5.818 5.818 0 0 1 1.228-1.83 5.698 5.698 0 0 1 1.82-1.217c.7-.304 1.457-.46 2.22-.457h.715c.193 0 .36.07.502.212a.687.687 0 0 1 .212.502v1.429c0 .193-.07.36-.212.502a.687.687 0 0 1-.502.212h-.715c-.788 0-1.462.279-2.02.837A2.754 2.754 0 0 0 12.857 6v.357c0 .298.104.55.313.759.208.208.461.313.76.313h2.5c.594 0 1.1.208 1.516.624.417.417.625.923.625 1.518Z"/>
</svg>
