<?xml version="1.0" encoding="UTF-8"?><svg id="_レイヤー_2" xmlns="http://www.w3.org/2000/svg" viewBox="0 0 286.15 56"><defs><style>.cls-1{fill:#1A1311;}</style></defs><g id="design"><g id="_グループ_646"><path id="_パス_4137" class="cls-1" d="m283.32,2.71c-1.67-.11-3.11,1.15-3.22,2.82-.11,1.67,1.15,3.11,2.82,3.22.14,0,.28,0,.42,0,1.67-.12,2.92-1.57,2.8-3.24-.11-1.51-1.31-2.7-2.82-2.8m-.01,5.71c-1.48,0-2.68-1.2-2.68-2.68,0-1.48,1.2-2.68,2.68-2.68,1.48,0,2.68,1.2,2.68,2.68h0c0,1.48-1.21,2.68-2.68,2.68"/><path id="_パス_4138" class="cls-1" d="m283.94,4.26c-.6-.04-1.21-.01-1.83-.01v3.16c.11,0,.23,0,.34-.02.06-.43.09-.87.14-1.34h.55q.89,0,.98.89c.01.16.04.32.07.5l.47-.04c-.09-.54-.18-1.05-.29-1.67.34-.33.35-.87.02-1.21-.12-.12-.27-.21-.44-.24m-.29,1.39c-.34.01-.69,0-1.09,0v-1.06c.39,0,.75-.02,1.1,0,.26,0,.47.2.47.46,0,.02,0,.05,0,.07.03.26-.16.49-.42.51-.02,0-.04,0-.06,0"/><path id="_パス_4139" class="cls-1" d="m169.3,4.21c-4.6-2.58-10-3.34-15.13-2.13-4.29,1.01-8.23,3.16-11.41,6.21-5.87,5.51-9.18,12.21-9.26,19.73-.03,2.3.2,4.59.7,6.83,1.49,7.19,5.87,13.45,12.11,17.31,5.99,3.94,13.52,4.75,20.21,2.16,12.27-4.88,19.4-17.72,17.05-30.71-1.43-8.35-6.72-15.54-14.26-19.39m6.29,26.51c-.06,3.83-.7,7.62-1.89,11.26-.69,2.01-1.78,3.86-3.21,5.43-1.84,1.96-4.25,3.3-6.89,3.82-3.08.66-6.26.69-9.35.08-3.89-.66-7.26-3.08-9.14-6.56-1.24-2.29-2.08-4.78-2.47-7.35-1.11-6.16-1.04-12.48.2-18.61.56-3.21,1.92-6.22,3.95-8.76,2.46-2.94,6.05-4.71,9.88-4.89,2.31-.22,4.63-.07,6.9.43,3.75.88,6.94,3.33,8.76,6.73,1.49,2.71,2.43,5.68,2.77,8.76.54,3.19.71,6.44.49,9.67"/><path id="_パス_4140" class="cls-1" d="m228.39,32.03c-1.76-2.83-4.48-4.93-7.67-5.91-2.52-.84-5.08-1.65-7.57-2.44-1.71-.54-3.42-1.08-5.12-1.64-2.24-.61-4.36-1.6-6.28-2.91-1.32-.9-2.33-2.19-2.88-3.69-1.41-3.77-.08-8.02,3.23-10.31,2.01-1.34,4.34-2.12,6.75-2.25,4.23-.52,8.43,1.21,11.06,4.56,1.81,2.32,3.02,5.06,3.52,7.96.18.87.31.95,1.24.83l.22-.03V2.69l-.19-.04c-.66-.26-1.41.06-1.67.72,0,0,0,0,0,.01-.14.38-.48.65-.88.71-.62-.21-1.22-.49-1.77-.85-2.61-1.46-7.47-4.17-13.57-2.91-7.67,1.59-12.33,6.94-12.76,14.68-.03.29-.05.59-.06.89,0,.05,0,.1-.01.14,0,.07-.01.14-.01.21v.3c0,.32,0,.65.02.97l.02.4c0,.18.01.35.03.53.28,3.31,2.08,6.3,4.88,8.1,1.41,1,2.94,1.81,4.57,2.39,2.54.87,5.15,1.68,7.67,2.46l1.07.33c.32.1.64.19.96.29,1.77.47,3.48,1.13,5.11,1.96,2.4,1.19,4.25,3.27,5.17,5.79.26.79.41,1.61.45,2.44l-.03.3c-.3,2.88-1.1,10.55-12.53,11-7.3.5-14.03-3.95-16.42-10.87-.33-1.01-.61-2.04-.83-3.09-.17-.82-.32-.91-1.2-.76l-.21.04v16.03h.5c.2,0,.41,0,.61-.02.23-.04.43-.18.54-.39.45-.95.72-1.36,2.32-1.14,1.14.18,2.26.47,3.34.87,3.31,1.19,6.8,1.8,10.32,1.8,1.64,0,3.28-.13,4.9-.38,8.26-1.11,14.52-8.03,14.79-16.36.23-2.52-.33-5.05-1.6-7.24"/><rect id="_長方形_456" class="cls-1" x="55.61" y="27.95" width="13.44" height="3.85"/><path id="_パス_4141" class="cls-1" d="m39.39,40.64V5.28h-3.74v-2.41h11.14v2.41h-3.49v50.39c-.49,0-2.39.04-2.77-.02L7.4,8.65v43.55h3.75v2.41H0v-.97h0v-1.44h3.49V5.24H0v-2.41h.56c4.81,0,6.63,0,11.45,0,.02,0,.03,0,.04,0h.09v.02l27.25,37.78Z"/><path id="_パス_4142" class="cls-1" d="m117.26,40.64V5.28h-3.74v-2.41h11.14v2.41h-3.49v50.39c-.49,0-2.39.04-2.77-.02L85.27,8.65v43.55h3.75v2.41h-11.15v-.97h0v-1.44h3.49V5.24h-3.49v-2.41h.56c4.81,0,6.63,0,11.45,0,.02,0,.03,0,.04,0h.09v.02l27.25,37.78Z"/><path id="_パス_4143" class="cls-1" d="m277.78,54.6v-12.51h-1.26s.43,8.67-6.75,9.81c-2.64.3-5.3.41-7.95.32h-11.36v-22.59c2.65-.09,5.31.02,7.95.33,7.18,1.13,6.75,8.83,6.75,8.83h1.26v-20.79h-1.26s.43,7.7-6.75,8.83c-2.64.3-5.3.41-7.95.32V5.22h10.09c2.65-.09,5.31.02,7.95.33,7.18,1.13,6.75,9.83,6.75,9.83h1.26V2.87h-36.95v2.37h3.49v46.97h-3.49v2.38h38.21Z"/></g></g></svg>